<svg xmlns="http://www.w3.org/2000/svg" xmlns:xlink="http://www.w3.org/1999/xlink" contentStyleType="text/css" height="686px" preserveAspectRatio="none" style="width:3569px;height:686px;background:#FFFFFF;" version="1.1" viewBox="0 0 3569 686" width="3569px" zoomAndPan="magnify"><defs/><g><!--cluster 8a5da52ed126447d359e70c05721a8aa--><g id="cluster_8a5da52ed126447d359e70c05721a8aa"><polygon fill="none" points="1572,48.59,1582,38.59,2086,38.59,2086,568.67,2076,578.67,1572,578.67,1572,48.59" style="stroke:#181818;stroke-width:1.0;"/><line style="stroke:#181818;stroke-width:1.0;" x1="2076" x2="2086" y1="48.59" y2="38.59"/><line style="stroke:#181818;stroke-width:1.0;" x1="1572" x2="2076" y1="48.59" y2="48.59"/><line style="stroke:#181818;stroke-width:1.0;" x1="2076" x2="2076" y1="48.59" y2="578.67"/><text fill="#000000" font-family="sans-serif" font-size="14" font-weight="bold" lengthAdjust="spacing" textLength="25" x="1812.5" y="64.5851">Api</text></g><!--cluster d48bac364ad5e16c8a0b13f87d5ae9d5--><g id="cluster_d48bac364ad5e16c8a0b13f87d5ae9d5"><polygon fill="none" points="16,40.45,26,30.45,708,30.45,708,568.67,698,578.67,16,578.67,16,40.45" style="stroke:#181818;stroke-width:1.0;"/><line style="stroke:#181818;stroke-width:1.0;" x1="698" x2="708" y1="40.45" y2="30.45"/><line style="stroke:#181818;stroke-width:1.0;" x1="16" x2="698" y1="40.45" y2="40.45"/><line style="stroke:#181818;stroke-width:1.0;" x1="698" x2="698" y1="40.45" y2="578.67"/><text fill="#000000" font-family="sans-serif" font-size="14" font-weight="bold" lengthAdjust="spacing" textLength="51" x="332.5" y="56.4451">Celery</text></g><!--cluster a2d09c7d76fced01f8be4b1f4cce8bec--><g id="cluster_a2d09c7d76fced01f8be4b1f4cce8bec"><polygon fill="none" points="732,40.45,742,30.45,1486,30.45,1486,568.67,1476,578.67,732,578.67,732,40.45" style="stroke:#181818;stroke-width:1.0;"/><line style="stroke:#181818;stroke-width:1.0;" x1="1476" x2="1486" y1="40.45" y2="30.45"/><line style="stroke:#181818;stroke-width:1.0;" x1="732" x2="1476" y1="40.45" y2="40.45"/><line style="stroke:#181818;stroke-width:1.0;" x1="1476" x2="1476" y1="40.45" y2="578.67"/><text fill="#000000" font-family="sans-serif" font-size="14" font-weight="bold" lengthAdjust="spacing" textLength="56" x="1077" y="56.4451">Apitest</text></g><!--cluster e8a48653851e28c69d0506508fb27fc5--><g id="cluster_e8a48653851e28c69d0506508fb27fc5"><polygon fill="none" points="2172,48.59,2182,38.59,2692,38.59,2692,568.67,2682,578.67,2172,578.67,2172,48.59" style="stroke:#181818;stroke-width:1.0;"/><line style="stroke:#181818;stroke-width:1.0;" x1="2682" x2="2692" y1="48.59" y2="38.59"/><line style="stroke:#181818;stroke-width:1.0;" x1="2172" x2="2682" y1="48.59" y2="48.59"/><line style="stroke:#181818;stroke-width:1.0;" x1="2682" x2="2682" y1="48.59" y2="578.67"/><text fill="#000000" font-family="sans-serif" font-size="14" font-weight="bold" lengthAdjust="spacing" textLength="71" x="2392.5" y="64.5851">Postgres</text></g><!--cluster 86a1b907d54bf7010394bf316e183e67--><g id="cluster_86a1b907d54bf7010394bf316e183e67"><polygon fill="none" points="2722,48.59,2732,38.59,2926,38.59,2926,331.38,2916,341.38,2722,341.38,2722,48.59" style="stroke:#181818;stroke-width:1.0;"/><line style="stroke:#181818;stroke-width:1.0;" x1="2916" x2="2926" y1="48.59" y2="38.59"/><line style="stroke:#181818;stroke-width:1.0;" x1="2722" x2="2916" y1="48.59" y2="48.59"/><line style="stroke:#181818;stroke-width:1.0;" x1="2916" x2="2916" y1="48.59" y2="341.38"/><text fill="#000000" font-family="sans-serif" font-size="14" font-weight="bold" lengthAdjust="spacing" textLength="43" x="2798.5" y="64.5851">Redis</text></g><!--cluster 7ec9242207ddb302d512749bf3c11c38--><g id="cluster_7ec9242207ddb302d512749bf3c11c38"><polygon fill="none" points="2950,16,2960,6,3552,6,3552,331.38,3542,341.38,2950,341.38,2950,16" style="stroke:#181818;stroke-width:1.0;"/><line style="stroke:#181818;stroke-width:1.0;" x1="3542" x2="3552" y1="16" y2="6"/><line style="stroke:#181818;stroke-width:1.0;" x1="2950" x2="3542" y1="16" y2="16"/><line style="stroke:#181818;stroke-width:1.0;" x1="3542" x2="3542" y1="16" y2="341.38"/><text fill="#000000" font-family="sans-serif" font-size="14" font-weight="bold" lengthAdjust="spacing" textLength="96" x="3199" y="31.9951">Opensearch</text></g><!--entity 6e7a256bbe4c40aa0a7a8d9e47a95b28--><g id="elem_6e7a256bbe4c40aa0a7a8d9e47a95b28"><rect fill="#F1F1F1" height="95.1875" rx="2.5" ry="2.5" style="stroke:#181818;stroke-width:0.5;" width="483" x="1587.5" y="78.59"/><rect fill="#F1F1F1" height="10" style="stroke:#181818;stroke-width:0.5;" width="15" x="2050.5" y="83.59"/><rect fill="#F1F1F1" height="2" style="stroke:#181818;stroke-width:0.5;" width="4" x="2048.5" y="85.59"/><rect fill="#F1F1F1" height="2" style="stroke:#181818;stroke-width:0.5;" width="4" x="2048.5" y="89.59"/><text fill="#000000" font-family="sans-serif" font-size="14" font-weight="bold" lengthAdjust="spacing" textLength="23" x="1602.5" y="111.5851">api</text><text fill="#000000" font-family="sans-serif" font-size="14" lengthAdjust="spacing" textLength="4" x="1602.5" y="127.882">&#160;</text><text fill="#000000" font-family="sans-serif" font-size="14" lengthAdjust="spacing" textLength="443" x="1602.5" y="144.1789">environment: DJANGO_SETTINGS_MODULE=config.settings.local</text><text fill="#000000" font-family="sans-serif" font-size="14" lengthAdjust="spacing" textLength="4" x="1602.5" y="160.4757">&#160;</text></g><!--entity 5f21627eb362edf555b94b18dae4979f--><g id="elem_5f21627eb362edf555b94b18dae4979f"><ellipse cx="2010" cy="296.38" fill="#F1F1F1" rx="8" ry="8" style="stroke:#181818;stroke-width:0.5;"/><text fill="#000000" font-family="sans-serif" font-size="14" lengthAdjust="spacing" textLength="36" x="1992" y="326.3751">8000</text></g><!--entity d31419d277dad1d6afdc49a3a05cf28c--><g id="elem_d31419d277dad1d6afdc49a3a05cf28c"><rect fill="#F1F1F1" height="39.2969" rx="2.5" ry="2.5" style="stroke:#181818;stroke-width:0.5;" width="66" x="1589" y="523.38"/><polygon fill="#F1F1F1" points="1638,528.38,1638,542.38,1650,542.38,1650,534.38,1644,528.38,1638,528.38" style="stroke:#181818;stroke-width:0.5;"/><line style="stroke:#181818;stroke-width:0.5;" x1="1644" x2="1644" y1="528.38" y2="534.38"/><line style="stroke:#181818;stroke-width:0.5;" x1="1650" x2="1644" y1="534.38" y2="534.38"/><text fill="#000000" font-family="sans-serif" font-size="14" lengthAdjust="spacing" textLength="36" x="1599" y="549.3751">/app/</text></g><!--entity c54db4ecb27f33dc78fd0392ffd64157--><g id="elem_c54db4ecb27f33dc78fd0392ffd64157"><rect fill="#F1F1F1" height="39.2969" rx="2.5" ry="2.5" style="stroke:#181818;stroke-width:0.5;" width="180" x="1690" y="523.38"/><polygon fill="#F1F1F1" points="1853,528.38,1853,542.38,1865,542.38,1865,534.38,1859,528.38,1853,528.38" style="stroke:#181818;stroke-width:0.5;"/><line style="stroke:#181818;stroke-width:0.5;" x1="1859" x2="1859" y1="528.38" y2="534.38"/><line style="stroke:#181818;stroke-width:0.5;" x1="1865" x2="1859" y1="534.38" y2="534.38"/><text fill="#000000" font-family="sans-serif" font-size="14" lengthAdjust="spacing" textLength="150" x="1700" y="549.3751">/app/requirements.in/</text></g><!--entity 934c6ea415510ce4bd74fd3fdb38f846--><g id="elem_934c6ea415510ce4bd74fd3fdb38f846"><rect fill="#F1F1F1" height="39.2969" rx="2.5" ry="2.5" style="stroke:#181818;stroke-width:0.5;" width="164" x="1905" y="523.38"/><polygon fill="#F1F1F1" points="2052,528.38,2052,542.38,2064,542.38,2064,534.38,2058,528.38,2052,528.38" style="stroke:#181818;stroke-width:0.5;"/><line style="stroke:#181818;stroke-width:0.5;" x1="2058" x2="2058" y1="528.38" y2="534.38"/><line style="stroke:#181818;stroke-width:0.5;" x1="2064" x2="2058" y1="534.38" y2="534.38"/><text fill="#000000" font-family="sans-serif" font-size="14" lengthAdjust="spacing" textLength="134" x="1915" y="549.3751">/app/requirements/</text></g><!--entity 08b7fccb45858be7a476d4e427762e0d--><g id="elem_08b7fccb45858be7a476d4e427762e0d"><rect fill="#F1F1F1" height="111.4844" rx="2.5" ry="2.5" style="stroke:#181818;stroke-width:0.5;" width="660" x="32" y="70.45"/><rect fill="#F1F1F1" height="10" style="stroke:#181818;stroke-width:0.5;" width="15" x="672" y="75.45"/><rect fill="#F1F1F1" height="2" style="stroke:#181818;stroke-width:0.5;" width="4" x="670" y="77.45"/><rect fill="#F1F1F1" height="2" style="stroke:#181818;stroke-width:0.5;" width="4" x="670" y="81.45"/><text fill="#000000" font-family="sans-serif" font-size="14" font-weight="bold" lengthAdjust="spacing" textLength="49" x="47" y="103.4451">celery</text><text fill="#000000" font-family="sans-serif" font-size="14" lengthAdjust="spacing" textLength="4" x="47" y="119.742">&#160;</text><text fill="#000000" font-family="sans-serif" font-size="14" lengthAdjust="spacing" textLength="443" x="47" y="136.0389">environment: DJANGO_SETTINGS_MODULE=config.settings.local</text><text fill="#000000" font-family="sans-serif" font-size="14" lengthAdjust="spacing" textLength="620" x="47" y="152.3357">environment: DATABASE_URL=psql://postgres:postgres@postgres:5432/trade_remedies</text><text fill="#000000" font-family="sans-serif" font-size="14" lengthAdjust="spacing" textLength="4" x="47" y="168.6326">&#160;</text></g><!--entity 18f46e94053d8be9117ff362d07ea559--><g id="elem_18f46e94053d8be9117ff362d07ea559"><rect fill="#F1F1F1" height="39.2969" rx="2.5" ry="2.5" style="stroke:#181818;stroke-width:0.5;" width="66" x="478" y="523.38"/><polygon fill="#F1F1F1" points="527,528.38,527,542.38,539,542.38,539,534.38,533,528.38,527,528.38" style="stroke:#181818;stroke-width:0.5;"/><line style="stroke:#181818;stroke-width:0.5;" x1="533" x2="533" y1="528.38" y2="534.38"/><line style="stroke:#181818;stroke-width:0.5;" x1="539" x2="533" y1="534.38" y2="534.38"/><text fill="#000000" font-family="sans-serif" font-size="14" lengthAdjust="spacing" textLength="36" x="488" y="549.3751">/app/</text></g><!--entity 6990f3009bd41c9d14e3fa45ab50e674--><g id="elem_6990f3009bd41c9d14e3fa45ab50e674"><rect fill="#F1F1F1" height="111.4844" rx="2.5" ry="2.5" style="stroke:#181818;stroke-width:0.5;" width="721" x="748.5" y="70.45"/><rect fill="#F1F1F1" height="10" style="stroke:#181818;stroke-width:0.5;" width="15" x="1449.5" y="75.45"/><rect fill="#F1F1F1" height="2" style="stroke:#181818;stroke-width:0.5;" width="4" x="1447.5" y="77.45"/><rect fill="#F1F1F1" height="2" style="stroke:#181818;stroke-width:0.5;" width="4" x="1447.5" y="81.45"/><text fill="#000000" font-family="sans-serif" font-size="14" font-weight="bold" lengthAdjust="spacing" textLength="54" x="763.5" y="103.4451">apitest</text><text fill="#000000" font-family="sans-serif" font-size="14" lengthAdjust="spacing" textLength="4" x="763.5" y="119.742">&#160;</text><text fill="#000000" font-family="sans-serif" font-size="14" lengthAdjust="spacing" textLength="439" x="763.5" y="136.0389">environment: DJANGO_SETTINGS_MODULE=config.settings.bdd</text><text fill="#000000" font-family="sans-serif" font-size="14" lengthAdjust="spacing" textLength="681" x="763.5" y="152.3357">environment: DATABASE_URL=psql://postgres:postgres@postgres:5432/trade_remedies_api_test</text><text fill="#000000" font-family="sans-serif" font-size="14" lengthAdjust="spacing" textLength="4" x="763.5" y="168.6326">&#160;</text></g><!--entity ac87813f11b62fa3c293f98c6f0edc00--><g id="elem_ac87813f11b62fa3c293f98c6f0edc00"><ellipse cx="1307" cy="296.38" fill="#F1F1F1" rx="8" ry="8" style="stroke:#181818;stroke-width:0.5;"/><text fill="#000000" font-family="sans-serif" font-size="14" lengthAdjust="spacing" textLength="36" x="1289" y="326.3751">8000</text></g><!--entity 0e8d126a111ffd375c60e77aad704d67--><g id="elem_0e8d126a111ffd375c60e77aad704d67"><rect fill="#F1F1F1" height="39.2969" rx="2.5" ry="2.5" style="stroke:#181818;stroke-width:0.5;" width="66" x="1076" y="523.38"/><polygon fill="#F1F1F1" points="1125,528.38,1125,542.38,1137,542.38,1137,534.38,1131,528.38,1125,528.38" style="stroke:#181818;stroke-width:0.5;"/><line style="stroke:#181818;stroke-width:0.5;" x1="1131" x2="1131" y1="528.38" y2="534.38"/><line style="stroke:#181818;stroke-width:0.5;" x1="1137" x2="1131" y1="534.38" y2="534.38"/><text fill="#000000" font-family="sans-serif" font-size="14" lengthAdjust="spacing" textLength="36" x="1086" y="549.3751">/app/</text></g><!--entity 086f471fbe3ab94b73c9798cd7d205b7--><g id="elem_086f471fbe3ab94b73c9798cd7d205b7"><rect fill="#F1F1F1" height="95.1875" rx="2.5" ry="2.5" style="stroke:#181818;stroke-width:0.5;" width="176" x="2493" y="78.59"/><rect fill="#F1F1F1" height="10" style="stroke:#181818;stroke-width:0.5;" width="15" x="2649" y="83.59"/><rect fill="#F1F1F1" height="2" style="stroke:#181818;stroke-width:0.5;" width="4" x="2647" y="85.59"/><rect fill="#F1F1F1" height="2" style="stroke:#181818;stroke-width:0.5;" width="4" x="2647" y="89.59"/><text fill="#000000" font-family="sans-serif" font-size="14" font-weight="bold" lengthAdjust="spacing" textLength="71" x="2508" y="111.5851">postgres</text><text fill="#000000" font-family="sans-serif" font-size="14" lengthAdjust="spacing" textLength="4" x="2508" y="127.882">&#160;</text><text fill="#000000" font-family="sans-serif" font-size="14" lengthAdjust="spacing" textLength="136" x="2508" y="144.1789">image: postgres:12</text><text fill="#000000" font-family="sans-serif" font-size="14" lengthAdjust="spacing" textLength="4" x="2508" y="160.4757">&#160;</text></g><!--entity 9c41b0dc0d9393d8a4c1a8e0ff9f1547--><g id="elem_9c41b0dc0d9393d8a4c1a8e0ff9f1547"><ellipse cx="2646" cy="296.38" fill="#F1F1F1" rx="8" ry="8" style="stroke:#181818;stroke-width:0.5;"/><text fill="#000000" font-family="sans-serif" font-size="14" lengthAdjust="spacing" textLength="36" x="2628" y="326.3751">5432</text></g><!--entity b150438c15c70ece2f9b812e19750c0b--><g id="elem_b150438c15c70ece2f9b812e19750c0b"><rect fill="#F1F1F1" height="39.2969" rx="2.5" ry="2.5" style="stroke:#181818;stroke-width:0.5;" width="263" x="2188.5" y="523.38"/><polygon fill="#F1F1F1" points="2434.5,528.38,2434.5,542.38,2446.5,542.38,2446.5,534.38,2440.5,528.38,2434.5,528.38" style="stroke:#181818;stroke-width:0.5;"/><line style="stroke:#181818;stroke-width:0.5;" x1="2440.5" x2="2440.5" y1="528.38" y2="534.38"/><line style="stroke:#181818;stroke-width:0.5;" x1="2446.5" x2="2440.5" y1="534.38" y2="534.38"/><text fill="#000000" font-family="sans-serif" font-size="14" lengthAdjust="spacing" textLength="233" x="2198.5" y="549.3751">/docker-entrypoint-initdb.d/init.sql</text></g><!--entity be37e40b068362ad529067845ac94bd0--><g id="elem_be37e40b068362ad529067845ac94bd0"><rect fill="#F1F1F1" height="39.2969" rx="2.5" ry="2.5" style="stroke:#181818;stroke-width:0.5;" width="189" x="2486.5" y="523.38"/><polygon fill="#F1F1F1" points="2658.5,528.38,2658.5,542.38,2670.5,542.38,2670.5,534.38,2664.5,528.38,2658.5,528.38" style="stroke:#181818;stroke-width:0.5;"/><line style="stroke:#181818;stroke-width:0.5;" x1="2664.5" x2="2664.5" y1="528.38" y2="534.38"/><line style="stroke:#181818;stroke-width:0.5;" x1="2670.5" x2="2664.5" y1="534.38" y2="534.38"/><text fill="#000000" font-family="sans-serif" font-size="14" lengthAdjust="spacing" textLength="159" x="2496.5" y="549.3751">/var/lib/postgresql/data</text></g><!--entity 3c217ea98bfddc0f9ff1c849de325d93--><g id="elem_3c217ea98bfddc0f9ff1c849de325d93"><rect fill="#F1F1F1" height="95.1875" rx="2.5" ry="2.5" style="stroke:#181818;stroke-width:0.5;" width="171" x="2738.5" y="78.59"/><rect fill="#F1F1F1" height="10" style="stroke:#181818;stroke-width:0.5;" width="15" x="2889.5" y="83.59"/><rect fill="#F1F1F1" height="2" style="stroke:#181818;stroke-width:0.5;" width="4" x="2887.5" y="85.59"/><rect fill="#F1F1F1" height="2" style="stroke:#181818;stroke-width:0.5;" width="4" x="2887.5" y="89.59"/><text fill="#000000" font-family="sans-serif" font-size="14" font-weight="bold" lengthAdjust="spacing" textLength="40" x="2753.5" y="111.5851">redis</text><text fill="#000000" font-family="sans-serif" font-size="14" lengthAdjust="spacing" textLength="4" x="2753.5" y="127.882">&#160;</text><text fill="#000000" font-family="sans-serif" font-size="14" lengthAdjust="spacing" textLength="131" x="2753.5" y="144.1789">image: redis:alpine</text><text fill="#000000" font-family="sans-serif" font-size="14" lengthAdjust="spacing" textLength="4" x="2753.5" y="160.4757">&#160;</text></g><!--entity 09876deab5af8de0c168ec3aa053742d--><g id="elem_09876deab5af8de0c168ec3aa053742d"><ellipse cx="2824" cy="296.38" fill="#F1F1F1" rx="8" ry="8" style="stroke:#181818;stroke-width:0.5;"/><text fill="#000000" font-family="sans-serif" font-size="14" lengthAdjust="spacing" textLength="36" x="2806" y="326.3751">6379</text></g><!--entity fce4d026f3c88880d3bc1932f8a0e155--><g id="elem_fce4d026f3c88880d3bc1932f8a0e155"><rect fill="#F1F1F1" height="160.375" rx="2.5" ry="2.5" style="stroke:#181818;stroke-width:0.5;" width="570" x="2966" y="46"/><rect fill="#F1F1F1" height="10" style="stroke:#181818;stroke-width:0.5;" width="15" x="3516" y="51"/><rect fill="#F1F1F1" height="2" style="stroke:#181818;stroke-width:0.5;" width="4" x="3514" y="53"/><rect fill="#F1F1F1" height="2" style="stroke:#181818;stroke-width:0.5;" width="4" x="3514" y="57"/><text fill="#000000" font-family="sans-serif" font-size="14" font-weight="bold" lengthAdjust="spacing" textLength="94" x="2981" y="78.9951">opensearch</text><text fill="#000000" font-family="sans-serif" font-size="14" lengthAdjust="spacing" textLength="4" x="2981" y="95.292">&#160;</text><text fill="#000000" font-family="sans-serif" font-size="14" lengthAdjust="spacing" textLength="319" x="2981" y="111.5889">image: opensearchproject/opensearch:2.13.0</text><text fill="#000000" font-family="sans-serif" font-size="14" lengthAdjust="spacing" textLength="163" x="2981" y="127.8857">restart: unless-stopped</text><text fill="#000000" font-family="sans-serif" font-size="14" lengthAdjust="spacing" textLength="289" x="2981" y="144.1826">environment: discovery.type=single-node</text><text fill="#000000" font-family="sans-serif" font-size="14" lengthAdjust="spacing" textLength="306" x="2981" y="160.4795">environment: plugins.security.disabled=true</text><text fill="#000000" font-family="sans-serif" font-size="14" lengthAdjust="spacing" textLength="530" x="2981" y="176.7764">environment: OPENSEARCH_INITIAL_ADMIN_PASSWORD=odR$YG8t$fcLe5X3</text><text fill="#000000" font-family="sans-serif" font-size="14" lengthAdjust="spacing" textLength="4" x="2981" y="193.0732">&#160;</text></g><!--entity f2bec76db2f51098322834626d235a93--><g id="elem_f2bec76db2f51098322834626d235a93"><ellipse cx="3212" cy="296.38" fill="#F1F1F1" rx="8" ry="8" style="stroke:#181818;stroke-width:0.5;"/><text fill="#000000" font-family="sans-serif" font-size="14" lengthAdjust="spacing" textLength="36" x="3194" y="326.3751">9200</text></g><!--entity 8219c6eafafa015c87ec17840e282de4--><g id="elem_8219c6eafafa015c87ec17840e282de4"><ellipse cx="3301" cy="296.38" fill="#F1F1F1" rx="8" ry="8" style="stroke:#181818;stroke-width:0.5;"/><text fill="#000000" font-family="sans-serif" font-size="14" lengthAdjust="spacing" textLength="36" x="3283" y="326.3751">9300</text></g><!--entity 1624c420083928ef3e240dd88f2e52f0--><g id="elem_1624c420083928ef3e240dd88f2e52f0"><ellipse cx="2129" cy="433.38" fill="#F1F1F1" rx="8" ry="8" style="stroke:#181818;stroke-width:0.5;"/><text fill="#000000" font-family="sans-serif" font-size="14" lengthAdjust="spacing" textLength="36" x="2111" y="463.3751">8000</text></g><!--entity 9f65b7bcbb788b74b8a2c351a8b0fd2a--><g id="elem_9f65b7bcbb788b74b8a2c351a8b0fd2a"><ellipse cx="1529" cy="433.38" fill="#F1F1F1" rx="8" ry="8" style="stroke:#181818;stroke-width:0.5;"/><text fill="#000000" font-family="sans-serif" font-size="14" lengthAdjust="spacing" textLength="36" x="1511" y="463.3751">8003</text></g><!--entity e771ba177215eb3092edcb43cf53c8a7--><g id="elem_e771ba177215eb3092edcb43cf53c8a7"><ellipse cx="2735" cy="433.38" fill="#F1F1F1" rx="8" ry="8" style="stroke:#181818;stroke-width:0.5;"/><text fill="#000000" font-family="sans-serif" font-size="14" lengthAdjust="spacing" textLength="36" x="2717" y="463.3751">5432</text></g><!--entity c896127ab1831787795a6fc7c8465c9a--><g id="elem_c896127ab1831787795a6fc7c8465c9a"><ellipse cx="2824" cy="433.38" fill="#F1F1F1" rx="8" ry="8" style="stroke:#181818;stroke-width:0.5;"/><text fill="#000000" font-family="sans-serif" font-size="14" lengthAdjust="spacing" textLength="36" x="2806" y="463.3751">6379</text></g><!--entity f11af3547113106dd0505e0fedbf032a--><g id="elem_f11af3547113106dd0505e0fedbf032a"><ellipse cx="3212" cy="433.38" fill="#F1F1F1" rx="8" ry="8" style="stroke:#181818;stroke-width:0.5;"/><text fill="#000000" font-family="sans-serif" font-size="14" lengthAdjust="spacing" textLength="36" x="3194" y="463.3751">9200</text></g><!--entity da00a6243221f321c0cc7a8802b537f8--><g id="elem_da00a6243221f321c0cc7a8802b537f8"><ellipse cx="3301" cy="433.38" fill="#F1F1F1" rx="8" ry="8" style="stroke:#181818;stroke-width:0.5;"/><text fill="#000000" font-family="sans-serif" font-size="14" lengthAdjust="spacing" textLength="36" x="3283" y="463.3751">9300</text></g><!--entity 34b136d9116514b1fea4129958363015--><g id="elem_34b136d9116514b1fea4129958363015"><rect fill="#F1F1F1" height="39.2969" rx="2.5" ry="2.5" style="stroke:#181818;stroke-width:0.5;" width="174" x="1022" y="641.67"/><polygon fill="#F1F1F1" points="1179,646.67,1179,660.67,1191,660.67,1191,652.67,1185,646.67,1179,646.67" style="stroke:#181818;stroke-width:0.5;"/><line style="stroke:#181818;stroke-width:0.5;" x1="1185" x2="1185" y1="646.67" y2="652.67"/><line style="stroke:#181818;stroke-width:0.5;" x1="1191" x2="1185" y1="652.67" y2="652.67"/><text fill="#000000" font-family="sans-serif" font-size="14" lengthAdjust="spacing" textLength="144" x="1032" y="667.6651">./trade_remedies_api</text></g><!--entity 725e6c85e3a4fc9f73987a049b024a79--><g id="elem_725e6c85e3a4fc9f73987a049b024a79"><rect fill="#F1F1F1" height="39.2969" rx="2.5" ry="2.5" style="stroke:#181818;stroke-width:0.5;" width="148" x="1706" y="641.67"/><polygon fill="#F1F1F1" points="1837,646.67,1837,660.67,1849,660.67,1849,652.67,1843,646.67,1837,646.67" style="stroke:#181818;stroke-width:0.5;"/><line style="stroke:#181818;stroke-width:0.5;" x1="1843" x2="1843" y1="646.67" y2="652.67"/><line style="stroke:#181818;stroke-width:0.5;" x1="1849" x2="1843" y1="652.67" y2="652.67"/><text fill="#000000" font-family="sans-serif" font-size="14" lengthAdjust="spacing" textLength="118" x="1716" y="667.6651">./requirements.in</text></g><!--entity 9b26155f87db5353e52c044ed75bc306--><g id="elem_9b26155f87db5353e52c044ed75bc306"><rect fill="#F1F1F1" height="39.2969" rx="2.5" ry="2.5" style="stroke:#181818;stroke-width:0.5;" width="132" x="1921" y="641.67"/><polygon fill="#F1F1F1" points="2036,646.67,2036,660.67,2048,660.67,2048,652.67,2042,646.67,2036,646.67" style="stroke:#181818;stroke-width:0.5;"/><line style="stroke:#181818;stroke-width:0.5;" x1="2042" x2="2042" y1="646.67" y2="652.67"/><line style="stroke:#181818;stroke-width:0.5;" x1="2048" x2="2042" y1="652.67" y2="652.67"/><text fill="#000000" font-family="sans-serif" font-size="14" lengthAdjust="spacing" textLength="102" x="1931" y="667.6651">./requirements</text></g><!--entity 630c41bb309a4cad1d3af5307ae11d3a--><g id="elem_630c41bb309a4cad1d3af5307ae11d3a"><rect fill="#F1F1F1" height="39.2969" rx="2.5" ry="2.5" style="stroke:#181818;stroke-width:0.5;" width="128" x="2256" y="641.67"/><polygon fill="#F1F1F1" points="2367,646.67,2367,660.67,2379,660.67,2379,652.67,2373,646.67,2367,646.67" style="stroke:#181818;stroke-width:0.5;"/><line style="stroke:#181818;stroke-width:0.5;" x1="2373" x2="2373" y1="646.67" y2="652.67"/><line style="stroke:#181818;stroke-width:0.5;" x1="2379" x2="2373" y1="652.67" y2="652.67"/><text fill="#000000" font-family="sans-serif" font-size="14" lengthAdjust="spacing" textLength="98" x="2266" y="667.6651">./setup/init.sql</text></g><!--entity b378cdf97968a4fad909345f0031f2b9--><g id="elem_b378cdf97968a4fad909345f0031f2b9"><rect fill="#F1F1F1" height="39.2969" rx="2.5" ry="2.5" style="stroke:#181818;stroke-width:0.5;" width="138" x="2512" y="641.67"/><polygon fill="#F1F1F1" points="2633,646.67,2633,660.67,2645,660.67,2645,652.67,2639,646.67,2633,646.67" style="stroke:#181818;stroke-width:0.5;"/><line style="stroke:#181818;stroke-width:0.5;" x1="2639" x2="2639" y1="646.67" y2="652.67"/><line style="stroke:#181818;stroke-width:0.5;" x1="2645" x2="2639" y1="652.67" y2="652.67"/><text fill="#000000" font-family="sans-serif" font-size="14" lengthAdjust="spacing" textLength="108" x="2522" y="667.6651">./postgres_data</text></g><!--link 6e7a256bbe4c40aa0a7a8d9e47a95b28 to 5f21627eb362edf555b94b18dae4979f--><g id="link_6e7a256bbe4c40aa0a7a8d9e47a95b28_5f21627eb362edf555b94b18dae4979f"><path codeLine="80" d="M1879.42,174.04 C1922.31,213.89 1980.24,267.72 2001.62,287.59 " fill="none" id="6e7a256bbe4c40aa0a7a8d9e47a95b28-5f21627eb362edf555b94b18dae4979f" style="stroke:#181818;stroke-width:1.0;"/></g><!--link 5f21627eb362edf555b94b18dae4979f to 1624c420083928ef3e240dd88f2e52f0--><g id="link_5f21627eb362edf555b94b18dae4979f_1624c420083928ef3e240dd88f2e52f0"><path codeLine="81" d="M2016.74,305.02 C2037.59,328.67 2100.89,400.49 2122.04,424.48 " fill="none" id="5f21627eb362edf555b94b18dae4979f-1624c420083928ef3e240dd88f2e52f0" style="stroke:#181818;stroke-width:1.0;"/></g><!--link d31419d277dad1d6afdc49a3a05cf28c to 34b136d9116514b1fea4129958363015--><g id="link_d31419d277dad1d6afdc49a3a05cf28c_34b136d9116514b1fea4129958363015"><path codeLine="82" d="M1588.76,555.58 C1561.41,564.82 1521.5,577.67 1486,586.67 C1387.74,611.59 1273.26,632.89 1196.46,646.07 " fill="none" id="d31419d277dad1d6afdc49a3a05cf28c-34b136d9116514b1fea4129958363015" style="stroke:#181818;stroke-width:1.0;"/><text fill="#000000" font-family="sans-serif" font-size="13" lengthAdjust="spacing" textLength="14" x="1446" y="607.7369">rw</text></g><!--link 6e7a256bbe4c40aa0a7a8d9e47a95b28 to d31419d277dad1d6afdc49a3a05cf28c--><g id="link_6e7a256bbe4c40aa0a7a8d9e47a95b28_d31419d277dad1d6afdc49a3a05cf28c"><path codeLine="83" d="M1805.66,173.97 C1760.4,264.66 1665.1491,455.5514 1634.2291,517.5114 " fill="none" id="6e7a256bbe4c40aa0a7a8d9e47a95b28-to-d31419d277dad1d6afdc49a3a05cf28c" style="stroke:#181818;stroke-width:1.0;stroke-dasharray:7.0,7.0;"/><polygon fill="#181818" points="1631.55,522.88,1639.1478,516.6131,1633.7826,518.4061,1631.9896,513.041,1631.55,522.88" style="stroke:#181818;stroke-width:1.0;"/><text fill="#000000" font-family="sans-serif" font-size="13" lengthAdjust="spacing" textLength="23" x="1714" y="370.4469">use</text></g><!--link c54db4ecb27f33dc78fd0392ffd64157 to 725e6c85e3a4fc9f73987a049b024a79--><g id="link_c54db4ecb27f33dc78fd0392ffd64157_725e6c85e3a4fc9f73987a049b024a79"><path codeLine="84" d="M1780,562.97 C1780,584.59 1780,619.76 1780,641.39 " fill="none" id="c54db4ecb27f33dc78fd0392ffd64157-725e6c85e3a4fc9f73987a049b024a79" style="stroke:#181818;stroke-width:1.0;"/><text fill="#000000" font-family="sans-serif" font-size="13" lengthAdjust="spacing" textLength="14" x="1781" y="607.7369">rw</text></g><!--link 6e7a256bbe4c40aa0a7a8d9e47a95b28 to c54db4ecb27f33dc78fd0392ffd64157--><g id="link_6e7a256bbe4c40aa0a7a8d9e47a95b28_c54db4ecb27f33dc78fd0392ffd64157"><path codeLine="85" d="M1823.47,173.97 C1812.76,264.66 1790.2839,454.9614 1782.9639,516.9214 " fill="none" id="6e7a256bbe4c40aa0a7a8d9e47a95b28-to-c54db4ecb27f33dc78fd0392ffd64157" style="stroke:#181818;stroke-width:1.0;stroke-dasharray:7.0,7.0;"/><polygon fill="#181818" points="1782.26,522.88,1787.2883,514.4115,1782.8466,517.9145,1779.3435,513.4729,1782.26,522.88" style="stroke:#181818;stroke-width:1.0;"/><text fill="#000000" font-family="sans-serif" font-size="13" lengthAdjust="spacing" textLength="23" x="1802" y="370.4469">use</text></g><!--link 934c6ea415510ce4bd74fd3fdb38f846 to 9b26155f87db5353e52c044ed75bc306--><g id="link_934c6ea415510ce4bd74fd3fdb38f846_9b26155f87db5353e52c044ed75bc306"><path codeLine="86" d="M1987,562.97 C1987,584.59 1987,619.76 1987,641.39 " fill="none" id="934c6ea415510ce4bd74fd3fdb38f846-9b26155f87db5353e52c044ed75bc306" style="stroke:#181818;stroke-width:1.0;"/><text fill="#000000" font-family="sans-serif" font-size="13" lengthAdjust="spacing" textLength="14" x="1988" y="607.7369">rw</text></g><!--link 6e7a256bbe4c40aa0a7a8d9e47a95b28 to 934c6ea415510ce4bd74fd3fdb38f846--><g id="link_6e7a256bbe4c40aa0a7a8d9e47a95b28_934c6ea415510ce4bd74fd3fdb38f846"><path codeLine="87" d="M1846.82,173.97 C1881.36,264.66 1953.9743,455.313 1977.5743,517.273 " fill="none" id="6e7a256bbe4c40aa0a7a8d9e47a95b28-to-934c6ea415510ce4bd74fd3fdb38f846" style="stroke:#181818;stroke-width:1.0;stroke-dasharray:7.0,7.0;"/><polygon fill="#181818" points="1979.71,522.88,1980.2445,513.0457,1977.9303,518.2075,1972.7685,515.8932,1979.71,522.88" style="stroke:#181818;stroke-width:1.0;"/><text fill="#000000" font-family="sans-serif" font-size="13" lengthAdjust="spacing" textLength="23" x="1923" y="370.4469">use</text></g><!--link 18f46e94053d8be9117ff362d07ea559 to 34b136d9116514b1fea4129958363015--><g id="link_18f46e94053d8be9117ff362d07ea559_34b136d9116514b1fea4129958363015"><path codeLine="88" d="M544.43,550.53 C634.95,568.13 887,617.15 1021.63,643.33 " fill="none" id="18f46e94053d8be9117ff362d07ea559-34b136d9116514b1fea4129958363015" style="stroke:#181818;stroke-width:1.0;"/><text fill="#000000" font-family="sans-serif" font-size="13" lengthAdjust="spacing" textLength="14" x="846" y="607.7369">rw</text></g><!--link 08b7fccb45858be7a476d4e427762e0d to 18f46e94053d8be9117ff362d07ea559--><g id="link_08b7fccb45858be7a476d4e427762e0d_18f46e94053d8be9117ff362d07ea559"><path codeLine="89" d="M381.79,182.28 C415.51,276.17 480.5423,457.213 502.1123,517.283 " fill="none" id="08b7fccb45858be7a476d4e427762e0d-to-18f46e94053d8be9117ff362d07ea559" style="stroke:#181818;stroke-width:1.0;stroke-dasharray:7.0,7.0;"/><polygon fill="#181818" points="504.14,522.93,504.8631,513.1077,502.4502,518.2242,497.3338,515.8114,504.14,522.93" style="stroke:#181818;stroke-width:1.0;"/><text fill="#000000" font-family="sans-serif" font-size="13" lengthAdjust="spacing" textLength="23" x="451" y="370.4469">use</text></g><!--link 6990f3009bd41c9d14e3fa45ab50e674 to ac87813f11b62fa3c293f98c6f0edc00--><g id="link_6990f3009bd41c9d14e3fa45ab50e674_ac87813f11b62fa3c293f98c6f0edc00"><path codeLine="90" d="M1173.83,182.26 C1219.62,221.16 1276.53,269.49 1298.13,287.84 " fill="none" id="6990f3009bd41c9d14e3fa45ab50e674-ac87813f11b62fa3c293f98c6f0edc00" style="stroke:#181818;stroke-width:1.0;"/></g><!--link ac87813f11b62fa3c293f98c6f0edc00 to 9f65b7bcbb788b74b8a2c351a8b0fd2a--><g id="link_ac87813f11b62fa3c293f98c6f0edc00_9f65b7bcbb788b74b8a2c351a8b0fd2a"><path codeLine="91" d="M1315.64,302.38 C1341.62,317.47 1421.19,363.93 1486,404.38 C1497.94,411.83 1511.52,420.75 1520.17,426.48 " fill="none" id="ac87813f11b62fa3c293f98c6f0edc00-9f65b7bcbb788b74b8a2c351a8b0fd2a" style="stroke:#181818;stroke-width:1.0;"/></g><!--link 0e8d126a111ffd375c60e77aad704d67 to 34b136d9116514b1fea4129958363015--><g id="link_0e8d126a111ffd375c60e77aad704d67_34b136d9116514b1fea4129958363015"><path codeLine="92" d="M1109,562.97 C1109,584.59 1109,619.76 1109,641.39 " fill="none" id="0e8d126a111ffd375c60e77aad704d67-34b136d9116514b1fea4129958363015" style="stroke:#181818;stroke-width:1.0;"/><text fill="#000000" font-family="sans-serif" font-size="13" lengthAdjust="spacing" textLength="14" x="1110" y="607.7369">rw</text></g><!--link 6990f3009bd41c9d14e3fa45ab50e674 to 0e8d126a111ffd375c60e77aad704d67--><g id="link_6990f3009bd41c9d14e3fa45ab50e674_0e8d126a111ffd375c60e77aad704d67"><path codeLine="93" d="M1109,182.28 C1109,276.17 1109,456.86 1109,516.93 " fill="none" id="6990f3009bd41c9d14e3fa45ab50e674-to-0e8d126a111ffd375c60e77aad704d67" style="stroke:#181818;stroke-width:1.0;stroke-dasharray:7.0,7.0;"/><polygon fill="#181818" points="1109,522.93,1113,513.93,1109,517.93,1105,513.93,1109,522.93" style="stroke:#181818;stroke-width:1.0;"/><text fill="#000000" font-family="sans-serif" font-size="13" lengthAdjust="spacing" textLength="23" x="1110" y="370.4469">use</text></g><!--link 086f471fbe3ab94b73c9798cd7d205b7 to 9c41b0dc0d9393d8a4c1a8e0ff9f1547--><g id="link_086f471fbe3ab94b73c9798cd7d205b7_9c41b0dc0d9393d8a4c1a8e0ff9f1547"><path codeLine="94" d="M2599.11,174.04 C2614.51,213.89 2635.31,267.72 2642.99,287.59 " fill="none" id="086f471fbe3ab94b73c9798cd7d205b7-9c41b0dc0d9393d8a4c1a8e0ff9f1547" style="stroke:#181818;stroke-width:1.0;"/></g><!--link 9c41b0dc0d9393d8a4c1a8e0ff9f1547 to e771ba177215eb3092edcb43cf53c8a7--><g id="link_9c41b0dc0d9393d8a4c1a8e0ff9f1547_e771ba177215eb3092edcb43cf53c8a7"><path codeLine="95" d="M2651.04,305.02 C2666.63,328.67 2713.98,400.49 2729.79,424.48 " fill="none" id="9c41b0dc0d9393d8a4c1a8e0ff9f1547-e771ba177215eb3092edcb43cf53c8a7" style="stroke:#181818;stroke-width:1.0;"/></g><!--link b150438c15c70ece2f9b812e19750c0b to 630c41bb309a4cad1d3af5307ae11d3a--><g id="link_b150438c15c70ece2f9b812e19750c0b_630c41bb309a4cad1d3af5307ae11d3a"><path codeLine="96" d="M2320,562.97 C2320,584.59 2320,619.76 2320,641.39 " fill="none" id="b150438c15c70ece2f9b812e19750c0b-630c41bb309a4cad1d3af5307ae11d3a" style="stroke:#181818;stroke-width:1.0;"/><text fill="#000000" font-family="sans-serif" font-size="13" lengthAdjust="spacing" textLength="14" x="2321" y="607.7369">rw</text></g><!--link 086f471fbe3ab94b73c9798cd7d205b7 to b150438c15c70ece2f9b812e19750c0b--><g id="link_086f471fbe3ab94b73c9798cd7d205b7_b150438c15c70ece2f9b812e19750c0b"><path codeLine="97" d="M2551.57,173.97 C2494.51,264.66 2374.225,455.8414 2335.245,517.8014 " fill="none" id="086f471fbe3ab94b73c9798cd7d205b7-to-b150438c15c70ece2f9b812e19750c0b" style="stroke:#181818;stroke-width:1.0;stroke-dasharray:7.0,7.0;"/><polygon fill="#181818" points="2332.05,522.88,2340.2282,517.3921,2334.7125,518.6479,2333.4568,513.1321,2332.05,522.88" style="stroke:#181818;stroke-width:1.0;"/><text fill="#000000" font-family="sans-serif" font-size="13" lengthAdjust="spacing" textLength="23" x="2436" y="370.4469">use</text></g><!--link be37e40b068362ad529067845ac94bd0 to b378cdf97968a4fad909345f0031f2b9--><g id="link_be37e40b068362ad529067845ac94bd0_b378cdf97968a4fad909345f0031f2b9"><path codeLine="98" d="M2581,562.97 C2581,584.59 2581,619.76 2581,641.39 " fill="none" id="be37e40b068362ad529067845ac94bd0-b378cdf97968a4fad909345f0031f2b9" style="stroke:#181818;stroke-width:1.0;"/><text fill="#000000" font-family="sans-serif" font-size="13" lengthAdjust="spacing" textLength="14" x="2582" y="607.7369">rw</text></g><!--link 086f471fbe3ab94b73c9798cd7d205b7 to be37e40b068362ad529067845ac94bd0--><g id="link_086f471fbe3ab94b73c9798cd7d205b7_be37e40b068362ad529067845ac94bd0"><path codeLine="99" d="M2581,173.97 C2581,264.66 2581,454.92 2581,516.88 " fill="none" id="086f471fbe3ab94b73c9798cd7d205b7-to-be37e40b068362ad529067845ac94bd0" style="stroke:#181818;stroke-width:1.0;stroke-dasharray:7.0,7.0;"/><polygon fill="#181818" points="2581,522.88,2585,513.88,2581,517.88,2577,513.88,2581,522.88" style="stroke:#181818;stroke-width:1.0;"/><text fill="#000000" font-family="sans-serif" font-size="13" lengthAdjust="spacing" textLength="23" x="2582" y="370.4469">use</text></g><!--link 3c217ea98bfddc0f9ff1c849de325d93 to 09876deab5af8de0c168ec3aa053742d--><g id="link_3c217ea98bfddc0f9ff1c849de325d93_09876deab5af8de0c168ec3aa053742d"><path codeLine="100" d="M2824,174.04 C2824,213.89 2824,267.72 2824,287.59 " fill="none" id="3c217ea98bfddc0f9ff1c849de325d93-09876deab5af8de0c168ec3aa053742d" style="stroke:#181818;stroke-width:1.0;"/></g><!--link 09876deab5af8de0c168ec3aa053742d to c896127ab1831787795a6fc7c8465c9a--><g id="link_09876deab5af8de0c168ec3aa053742d_c896127ab1831787795a6fc7c8465c9a"><path codeLine="101" d="M2824,305.02 C2824,328.67 2824,400.49 2824,424.48 " fill="none" id="09876deab5af8de0c168ec3aa053742d-c896127ab1831787795a6fc7c8465c9a" style="stroke:#181818;stroke-width:1.0;"/></g><!--link fce4d026f3c88880d3bc1932f8a0e155 to f2bec76db2f51098322834626d235a93--><g id="link_fce4d026f3c88880d3bc1932f8a0e155_f2bec76db2f51098322834626d235a93"><path codeLine="102" d="M3232.53,206.85 C3224.97,239.45 3217.2,272.95 3213.79,287.66 " fill="none" id="fce4d026f3c88880d3bc1932f8a0e155-f2bec76db2f51098322834626d235a93" style="stroke:#181818;stroke-width:1.0;"/></g><!--link f2bec76db2f51098322834626d235a93 to f11af3547113106dd0505e0fedbf032a--><g id="link_f2bec76db2f51098322834626d235a93_f11af3547113106dd0505e0fedbf032a"><path codeLine="103" d="M3212,305.02 C3212,328.67 3212,400.49 3212,424.48 " fill="none" id="f2bec76db2f51098322834626d235a93-f11af3547113106dd0505e0fedbf032a" style="stroke:#181818;stroke-width:1.0;"/></g><!--link fce4d026f3c88880d3bc1932f8a0e155 to 8219c6eafafa015c87ec17840e282de4--><g id="link_fce4d026f3c88880d3bc1932f8a0e155_8219c6eafafa015c87ec17840e282de4"><path codeLine="104" d="M3274.68,206.85 C3284.37,239.45 3294.33,272.95 3298.71,287.66 " fill="none" id="fce4d026f3c88880d3bc1932f8a0e155-8219c6eafafa015c87ec17840e282de4" style="stroke:#181818;stroke-width:1.0;"/></g><!--link 8219c6eafafa015c87ec17840e282de4 to da00a6243221f321c0cc7a8802b537f8--><g id="link_8219c6eafafa015c87ec17840e282de4_da00a6243221f321c0cc7a8802b537f8"><path codeLine="105" d="M3301,305.02 C3301,328.67 3301,400.49 3301,424.48 " fill="none" id="8219c6eafafa015c87ec17840e282de4-da00a6243221f321c0cc7a8802b537f8" style="stroke:#181818;stroke-width:1.0;"/></g><!--SRC=[hLPTRrj547tthx2YFa2bsFlz4Ia8GwCIb2PLaWeGGjRipcouuDgkVTDI8VuxSwzZDquBIm3xvVfwT_RicJap1sQpnRlNpM_D_6OmNo0D3oRBvc08ws40Ys0LeLJE68_QHl8Y2-kLX00m_7qmp8lNoyMSvktGaGTbNKfaiX400Zm4Z6GyH9jK6FuuUFeKbitJfuC1pTysgyNyDUyx6ZxxTdB-_69wTN9zVNh-_6hwukBPgxEJuxoOb-PcjAQsPMZhqMoHOJOO_3JuxFFXGH12z1XjKT8fJqax1bgijIcQ90C2cUXZ6S2gRGhaTdWmXkLot6z2BOsCgBn7G8aE2cOJGOEmkQYG7svQqPlRPaKTtFMecM-2P6im6Sf9-Q8rPXyA2XrLAUYCjFxlWcmYH6so8-35LefC9g4t1NN1f4C9nWt-k4l8rpIZrViDT1CIPEqCe2NfSW2Hf2x1emMAQFTp8aBo9UTaRB0XSOACTsZ8yCsPBe5zJd8V_R-bPN_dv7horUJgPFhgyknukNupEngFbujrUxEYzT7suSlT6skq6hShG9fsz613woxDdqgS3CKuYaPOZNoVAAKlXJEFmXDO6tUCSGctj6xxJS1_n-pHkv89XIoyaqkac9o97_E3CevH52r4J6XaZYWDwGB6GhA2d3VRCkx2_rlE4kB_pTYK8KqxJ1yf17BmWKj4okHK0PrLr2M6x8eWp49yacX1eLCzI2cvdhMtsGdo7W2zCEZyZkYNTvZwNHJ016Tri99OHYwYiC9P4KedalnHSRfYl2o9D7IYzJgpOaD6ZqhOv7kcjtVkg6vUmmqT3NSqIBMzR4V8HbBPo2JuMXXrv1e1axbLaIWb5cdDdYXnaN-brI53MRrVBffvUzZCcnRJ2CVTmuZJqCTCqWgZGvOsUq6PL8afI4KoUilTCDsF-HPMurcJTibxCniZjB29GzgJ4Kcum2NB-bLHE1-uj3BV7iMEqqlEw8RGm1b8KR2uJIfUIEul_A2b8naqL-C-ePnQoJg88HLa2lZAHUPW8f9MbWdf2LrrmU-nsVy-WjcocTEMJgTzt9H13DmmY6iVIa0IMRf0MNDpjzeRXJl85qkQhmbM-UT-dwSSbL6AaNCp4mgjLDv4Xfwbp3hiusPP6XJAyR-1Fm9roZ9gLRYv4JV77lTYTy8zy1zUBbUBNoYtumzlZjH8wf4OS1PQpj3Hy7O-e_NwSDqkbajw843c82_USXiSjU-NTBnccSxeiBlR_hhbxFQccQzPolbsrRJlHxmHqepmk5tTFbXxyVBa_EfaSldrDzFJyzFhqydPTFBinUdvzENawkgxYyjdnmkyVFB3yz0-AVcCxFTwotzKTzejYliJPo2fmYCY1grKqCOfXqfRY7gpMj-j3ah6Rg0K_Wgkri1fa5nWWiMea0ndQwypyE3aKSrd1HvRWOecPGHY24MHLKLiL-kDj8fZKQQSaWyyLamAeBAsBAya2YhO5o8t2vb0UhOAbeUpY3oTUGxfN2nd6Vn-dUKG7LS8yE3MZDZxQ86xjUVgTJP7UC2Ab50qgrbABON3hijOrZXXAaBV8TcnWY04y4sPErcqabdapCua29MuY4ku9z_H9vfg7qFplD0EUTuuAxlPqKrj5QDb9MkcUY_60xUm4OIonCFQSgip9SVYDIiB14j2A0C-_cM03VL9ETP1D-KPizMSdIoC8VGsPItStcwUChVB_Gx66Bk-sAM16s9dUJHm7eG7ajtptlvjwvf-Q5pQSrSkt9mTDzG260LR5rkuCYHNQ1nKhTyX7jQTMcr17wLQipLlrqUfvNDuD3nOlJkeNsmqmj7eYwgXxEBThkbWK3EDFRfQiJmMNVNGBRgQ8UtHrOhniUYgXsxHrSpVep9RTSPtwAg7Rj5LVME7hkx5AWis6QXruffxUvm6QXUxOwfww9Qfgk_hxrWpShK5VPJg5AfvkpvAhNr-gAdAnUwOgXwwPQhc67jqjUxyQ7IrGxVegdQpGrTraBK5VPIgFwXQo2vArKtL5coYrDp7Fy9IzMgr1NsKchVv4m00]--></g></svg>